HIERARCHY
ROOT Hips
{
  OFFSET 0 0 0
  CHANNELS 6 Xposition Yposition Zposition Zrotation Yrotation Xrotation
  JOINT LeftThigh
  {
    OFFSET 8.409438 0 -5.917753
    CHANNELS 3 Zrotation Yrotation Xrotation
    JOINT LeftLeg
    {
      OFFSET 0 0 -42.358652
      CHANNELS 3 Zrotation Yrotation Xrotation
      JOINT LeftFoot
      {
        OFFSET 0 0 -39.357303
        CHANNELS 3 Zrotation Yrotation Xrotation
      }
    }
  }
  JOINT RightThigh
  {
    OFFSET -8.409438 0 -5.917753
    CHANNELS 3 Zrotation Yrotation Xrotation
    JOINT RightLeg
    {
      OFFSET 0 0 -42.358652
      CHANNELS 3 Zrotation Yrotation Xrotation
      JOINT RightFoot
      {
        OFFSET 0 0 -39.357303
        CHANNELS 3 Zrotation Yrotation Xrotation
      }
    }
  }
  JOINT SpineLow
  {
    OFFSET 0 0 4.719101
    CHANNELS 3 Zrotation Yrotation Xrotation
    JOINT SpineMid
    {
      OFFSET 0 0 12.899191
      CHANNELS 3 Zrotation Yrotation Xrotation
      JOINT Chest
      {
        OFFSET 0 0 12.899191
        CHANNELS 3 Zrotation Yrotation Xrotation
        JOINT LeftShoulder
        {
          OFFSET 7.550562 1.41573 9.438202
          CHANNELS 3 Zrotation Yrotation Xrotation
          JOINT LeftArm
          {
            OFFSET 9.155056 0 4.247191
            CHANNELS 3 Zrotation Yrotation Xrotation
            JOINT LeftForearm
            {
              OFFSET 0 0 25.771955
              CHANNELS 3 Zrotation Yrotation Xrotation
              JOINT LeftHand
              {
                OFFSET 0 0 25.197169
                CHANNELS 3 Zrotation Yrotation Xrotation
              }
            }
          }
        }
        JOINT RightShoulder
        {
          OFFSET -7.550562 1.41573 9.438202
          CHANNELS 3 Zrotation Yrotation Xrotation
          JOINT RightArm
          {
            OFFSET -9.155056 0 4.247191
            CHANNELS 3 Zrotation Yrotation Xrotation
            JOINT RightForearm
            {
              OFFSET 0 0 -25.771955
              CHANNELS 3 Zrotation Yrotation Xrotation
              JOINT RightHand
              {
                OFFSET 0 0 -25.197169
                CHANNELS 3 Zrotation Yrotation Xrotation
              }
            }
          }
        }
        JOINT Neck
        {
          OFFSET 0 0 15.101124
          CHANNELS 3 Zrotation Yrotation Xrotation
          JOINT Head
          {
            OFFSET 0 0 11.325843
            CHANNELS 3 Zrotation Yrotation Xrotation
            End Site
            {
              OFFSET 0 0 14.157303
            }
          }
        }
      }
    }
  }
}
MOTION
Frames: 11
Frame Time: 0.01
0.0  101.685394  0.0  -1.434087  36.890259  -103.524267  10.823138  -21.92215  -2.761472  -14.825566  13.15723  28.014685  2.180769  3.154693  3.935897  -22.847546  17.427761  2.81722  -5.854753  3.580205  28.668875  1.672102  7.97474  -1.541379  -0.791737  1.256062  1.552415  -2.084216  3.482127  4.205281  -2.084216  3.482127  4.205281  -2.43787  18.723195  30.368481  128.32969  75.235136  -146.547103  -44.597413  0.831265  73.514842  75.730513  9.092952  10.283686  20.324949  -20.591672  16.633694  125.389317  69.961841  50.58884  -19.195688  -28.351441  -115.406738  85.182525  -1.143932  49.117978  -0.915292  -6.338594  -1.194069  -0.6982  -4.752194  -0.904166  
0.0  101.685394  0.0  -1.716336  37.113026  -103.633806  11.04354  -22.175507  -3.634882  -15.178276  13.625657  29.043264  1.881735  3.351334  3.699147  -22.319141  17.197398  2.789059  -6.17764  3.571137  29.237975  1.634613  8.077103  -1.613893  -0.82069  1.241242  1.562683  -2.16376  3.443795  4.232248  -2.16376  3.443795  4.232248  -2.739303  18.718553  30.011538  128.583942  75.939461  -146.436463  -44.010896  -0.267692  73.467502  73.995773  9.51405  10.264363  20.342212  -20.581034  16.659784  125.567949  69.95869  50.615886  -18.912265  -29.025523  -115.280089  84.291808  -1.043658  49.243033  -1.009485  -6.330358  -1.294527  -0.769803  -4.745674  -0.980402  
0.0  101.685394  0.0  -2.010528  37.168877  -103.756125  11.706634  -22.494612  -4.498974  -15.617691  14.077408  30.166306  1.616253  3.49167  3.366253  -21.639145  16.94578  2.696468  -6.37099  3.455867  29.855348  1.487507  8.225366  -1.638637  -0.826384  1.223948  1.586018  -2.179187  3.397664  4.296272  -2.179187  3.397664  4.296272  -3.098819  18.720811  29.690099  129.386871  76.756427  -145.965793  -43.30851  -1.048849  73.653697  72.323964  9.781537  10.438191  20.331442  -20.537456  16.619915  125.473807  70.148948  50.357581  -18.196951  -29.719597  -115.459056  83.45075  -1.149745  49.362398  -1.104926  -6.39033  -1.443041  -0.842983  -4.790192  -1.092756  
0.0  101.685394  0.0  -1.55961  38.984657  -103.046252  10.921861  -21.788807  -5.557352  -16.347157  14.714576  31.166557  1.670177  3.613457  3.087526  -22.70044  17.50807  1.780886  -6.542053  3.140335  30.536125  1.16983  8.415345  -1.63523  -1.099987  1.345392  1.572251  -2.920601  3.746399  4.239504  -2.920602  3.746399  4.239504  -3.663931  18.703179  29.327699  127.786698  77.824259  -147.002784  -43.298795  -2.178513  73.296905  71.235833  9.759972  10.752342  20.536683  -20.604478  16.504893  125.507769  70.409678  50.354415  -17.560456  -30.205323  -115.586106  82.69513  -1.48186  49.232262  -1.463399  -6.370725  -1.647248  -1.113659  -4.774179  -1.249479  
0.0  101.685394  0.0  -1.956718  38.770125  -103.326858  12.049803  -22.228324  -6.29582  -17.021545  15.082296  32.195665  1.419476  3.767646  2.769032  -21.8827  17.249508  1.618326  -6.607723  2.779479  31.273473  0.726891  8.583311  -1.621709  -1.087608  1.321396  1.633307  -2.884763  3.682673  4.408169  -2.884763  3.682673  4.408169  -4.210938  18.777531  28.962041  128.546087  78.919878  -146.940041  -43.006027  -1.790586  73.633618  70.924603  9.58891  11.335724  20.646297  -20.659246  16.306925  125.679649  70.659518  50.407041  -17.107561  -30.444656  -115.6044  82.005201  -2.1033  48.780075  -1.561119  -6.522222  -1.885386  -1.189783  -4.886951  -1.429244  
0.0  101.685394  0.0  -2.443396  38.366519  -103.57965  13.261333  -22.513824  -7.131214  -17.557375  15.099879  33.301376  1.19228  3.956835  2.559776  -21.226749  16.825927  1.283215  -6.602267  2.418473  32.023012  0.236562  8.760686  -1.617308  -1.069185  1.292012  1.69408  -2.832895  3.603742  4.576568  -2.832895  3.603742  4.576568  -4.883437  18.856065  28.484716  128.526536  80.106689  -147.558432  -43.131161  -1.014257  73.820979  71.255891  9.519044  12.163928  21.119976  -20.931  16.036234  126.511175  70.766114  51.097757  -17.323353  -30.201567  -115.092209  81.342216  -3.023299  48.14008  -1.617198  -6.708375  -2.174608  -1.235494  -5.025654  -1.646924  
0.0  101.685394  0.0  -2.989345  37.743081  -103.848237  14.49421  -22.815147  -7.871915  -18.043458  14.889014  34.286949  0.943497  4.190373  2.367619  -20.646322  16.305994  0.822543  -6.888088  2.194937  32.762197  0.116874  9.026813  -1.558701  -1.02792  1.237172  1.758608  -2.720286  3.453714  4.757346  -2.720286  3.453714  4.757346  -5.712755  19.038789  27.925062  129.150048  81.2976  -147.857917  -43.294808  0.371527  74.123371  71.709318  9.686768  13.071092  21.197402  -21.125543  15.69531  127.740955  70.773946  52.004318  -17.691361  -29.71152  -114.493759  80.696341  -4.163363  47.323025  -1.627327  -6.843876  -2.486446  -1.247026  -5.12644  -1.880927  
0.0  101.685394  0.0  -3.532227  36.927176  -104.098028  15.580103  -23.069231  -8.357271  -19.205018  15.202811  34.742016  1.694608  4.241359  2.303024  -20.411939  15.735433  0.181169  -7.194955  2.222144  33.489669  0.47317  9.320067  -1.452996  -0.983457  1.165059  1.825841  -2.600372  3.256156  4.94608  -2.600372  3.256156  4.94608  -6.697455  19.28695  27.21848  130.857346  82.359521  -147.231515  -43.375683  2.113962  74.386355  72.00974  10.060416  13.731489  21.26512  -21.400892  15.292379  129.332194  70.599085  53.209816  -18.261177  -28.952895  -113.72916  80.130365  -5.362359  46.312516  -1.543385  -6.893667  -2.816654  -1.188076  -5.163318  -2.127433  
0.0  101.685394  0.0  -3.934008  35.648909  -104.190295  16.779291  -23.258697  -8.481629  -19.977503  14.840214  34.90866  2.18882  4.451397  2.333067  -20.463754  15.172787  -0.773678  -7.160139  2.501405  34.289887  1.330977  9.510414  -1.361804  -0.896231  1.083046  1.874262  -2.365638  3.027361  5.085411  -2.365638  3.027361  5.085411  -7.62284  19.411938  26.645208  136.022697  83.345159  -143.180195  -43.13618  4.264694  74.653425  72.064557  10.573815  13.732149  21.427577  -21.875663  14.85567  131.251871  70.127969  54.839296  -18.967443  -28.134566  -112.823328  79.794203  -6.31612  44.92097  -1.370252  -6.845378  -3.129043  -1.061692  -5.127219  -2.359408  
0.0  101.685394  0.0  -4.061804  33.827988  -104.257718  17.808433  -23.470487  -7.961476  -20.469339  14.390064  34.699941  2.756181  4.650064  2.398193  -20.612961  14.869651  -1.862887  -6.527423  2.7481  35.178369  2.362128  9.537302  -1.284494  -0.742855  1.011059  1.907787  -1.950394  2.819963  5.186004  -1.950394  2.819963  5.186004  -8.380427  19.359926  26.405424  145.036753  84.188481  -135.386294  -42.487327  6.714187  75.056898  71.709591  10.982858  12.803898  21.495768  -22.67773  14.647658  133.424469  69.326295  56.781501  -19.729408  -27.031422  -111.739068  79.578803  -6.556367  43.136204  -1.20221  -6.728986  -3.292914  -0.937055  -5.040468  -2.480139  
0.0  101.685394  0.0  -3.903652  31.325323  -104.195921  18.633119  -23.67329  -6.958888  -20.369681  13.85871  34.252244  3.413905  4.82098  2.527143  -20.797453  14.792505  -3.092338  -5.033338  2.645385  35.953849  3.167236  9.464117  -1.209424  -0.514689  0.937318  1.9096  -1.332467  2.600738  5.201943  -1.332467  2.600738  5.201943  -9.041131  19.214215  26.387874  156.715171  84.623145  -125.129818  -41.274703  9.086456  75.790318  70.734405  11.290771  10.816973  21.267243  -23.586679  14.756997  135.264091  68.295893  58.30374  -20.451236  -25.535999  -110.517535  79.71215  -5.931779  40.726512  -1.051777  -6.515189  -3.278652  -0.823095  -4.880941  -2.467595  
